<?xml version="1.0" encoding="UTF-8" standalone="no"?>
<!-- Generator: Adobe Illustrator 15.0.0, SVG Export Plug-In . SVG Version: 6.00 Build 0)  -->

<svg
   xmlns:dc="http://purl.org/dc/elements/1.1/"
   xmlns:cc="http://creativecommons.org/ns#"
   xmlns:rdf="http://www.w3.org/1999/02/22-rdf-syntax-ns#"
   xmlns:svg="http://www.w3.org/2000/svg"
   xmlns="http://www.w3.org/2000/svg"
   xmlns:sodipodi="http://sodipodi.sourceforge.net/DTD/sodipodi-0.dtd"
   xmlns:inkscape="http://www.inkscape.org/namespaces/inkscape"
   version="1.1"
   id="Layer_1"
   x="0px"
   y="0px"
   width="200"
   height="40"
   viewBox="0 0 200 40"
   enable-background="new 0 0 520 110"
   xml:space="preserve"
   inkscape:version="0.48.2 r9819"
   sodipodi:docname="logo-white.svg"
   inkscape:export-filename="/Users/gotoalberto/Downloads/coinffeine_big.png"
   inkscape:export-xdpi="153.16"
   inkscape:export-ydpi="153.16"><metadata
   id="metadata31"><rdf:RDF><cc:Work
       rdf:about=""><dc:format>image/svg+xml</dc:format><dc:type
         rdf:resource="http://purl.org/dc/dcmitype/StillImage" /><dc:title></dc:title></cc:Work></rdf:RDF></metadata><defs
   id="defs29" /><sodipodi:namedview
   pagecolor="#ffffff"
   bordercolor="#666666"
   borderopacity="1"
   objecttolerance="10"
   gridtolerance="10"
   guidetolerance="10"
   inkscape:pageopacity="0"
   inkscape:pageshadow="2"
   inkscape:window-width="640"
   inkscape:window-height="480"
   id="namedview27"
   showgrid="false"
   inkscape:zoom="0.67692308"
   inkscape:cx="262.58853"
   inkscape:cy="130.78524"
   inkscape:window-x="117"
   inkscape:window-y="0"
   inkscape:window-maximized="0"
   inkscape:current-layer="Layer_1" />
<path
   d="m 24.584505,1.405 c -10.097207,0 -18.2834141,8.185 -18.2834141,18.2822 0,10.0984 8.1862071,18.2838 18.2834141,18.2838 10.097208,0 18.283415,-8.1854 18.283415,-18.2838 C 42.867523,9.59 34.681713,1.405 24.584505,1.405 z m 0,2.0312 c 8.977103,0 16.251836,7.2767 16.251836,16.251 0,8.9751 -7.274733,16.2519 -16.251836,16.2519 -8.975516,0 -16.2518354,-7.2768 -16.2518354,-16.2519 0,-8.9743 7.2763194,-16.251 16.2518354,-16.251 z"
   id="path3"
   inkscape:export-filename="/Users/gotoalberto/git/coinffeine-webpage/assets/images/path23.png"
   inkscape:export-xdpi="28.719999"
   inkscape:export-ydpi="28.719999"
   style="fill:#ffffff"
   inkscape:connector-curvature="0" />
<path
   d="m 31.017573,8.7757 c 0,0 -2.196183,4.5467 -3.859285,6.5473 -1.663896,2.0003 -3.724429,3.0577 -5.387134,5.6458 -1.662706,2.5884 -3.61932,9.6295 -3.61932,9.6295 0,0 2.197373,-4.545 3.858889,-6.5457 1.664292,-2.001 3.726015,-3.0585 5.387134,-5.6473 1.663102,-2.5877 3.619716,-9.6296 3.619716,-9.6296 z m 1.206176,15.4146 c -3.552288,6.0265 -9.853276,8.8957 -14.072312,6.4084 -4.218639,-2.4853 -4.758066,-9.388 -1.204589,-15.4137 3.551892,-6.0261 9.852086,-8.8946 14.070725,-6.4089 4.218639,2.4865 4.758067,9.388 1.206176,15.4142 z"
   id="path5"
   inkscape:export-filename="/Users/gotoalberto/git/coinffeine-webpage/assets/images/path23.png"
   inkscape:export-xdpi="28.719999"
   inkscape:export-ydpi="28.719999"
   style="fill:#ffffff"
   inkscape:connector-curvature="0" />
<path
   d="m 67.800966,12.1935 v 3.0434 c -0.97216,-0.9063 -2.008971,-1.5817 -3.113607,-2.0291 -1.095117,-0.4471 -2.260438,-0.6708 -3.499535,-0.6708 -2.437736,0 -4.304313,0.7469 -5.598542,2.2418 -1.295815,1.4858 -1.943922,3.6388 -1.943922,6.4565 0,2.809 0.648503,4.9604 1.943922,6.4561 1.294626,1.4854 3.161203,2.2287 5.598542,2.2287 1.239097,0 2.404418,-0.2249 3.499535,-0.6727 1.10424,-0.4474 2.141051,-1.1229 3.113607,-2.0276 v 3.0144 c -1.008254,0.6846 -2.081159,1.1991 -3.213956,1.5425 -1.123675,0.3427 -2.312795,0.5137 -3.571327,0.5137 -3.227441,0 -5.771079,-0.9853 -7.626947,-2.9573 -1.855868,-1.9805 -2.784794,-4.6796 -2.784794,-8.0974 0,-3.4293 0.929322,-6.1281 2.784794,-8.0989 1.856265,-1.9805 4.399903,-2.9713 7.626947,-2.9713 1.276381,0 2.47621,0.1718 3.599885,0.5149 1.133987,0.3328 2.194993,0.8369 3.185398,1.5131"
   id="path7"
   inkscape:export-filename="/Users/gotoalberto/git/coinffeine-webpage/assets/images/path23.png"
   inkscape:export-xdpi="28.719999"
   inkscape:export-ydpi="28.719999"
   style="fill:#ffffff"
   inkscape:connector-curvature="0" />
<path
   d="m 78.369775,17.7211 c -1.40846,0 -2.522616,0.5525 -3.340483,1.6579 -0.819453,1.0952 -1.22918,2.5988 -1.22918,4.513 0,1.9138 0.404967,3.4234 1.214108,4.5272 0.817867,1.0959 1.938765,1.6429 3.355555,1.6429 1.400925,0 2.511114,-0.5521 3.328981,-1.6564 0.819454,-1.1046 1.228784,-2.6087 1.228784,-4.5137 0,-1.8952 -0.408934,-3.3948 -1.228784,-4.4991 -0.817867,-1.1149 -1.927659,-1.6718 -3.328981,-1.6718 m 0,-2.2287 c 2.28622,0 4.081006,0.7429 5.387531,2.2287 1.302955,1.4858 1.955424,3.5432 1.955424,6.1709 0,2.6186 -0.652469,4.6748 -1.955424,6.1701 -1.306525,1.4854 -3.101311,2.2283 -5.387531,2.2283 -2.294946,0 -4.094095,-0.7429 -5.399033,-2.2283 C 71.676513,28.5668 71.0292,26.5106 71.0292,23.892 c 0,-2.6277 0.647313,-4.6851 1.941542,-6.1709 1.304938,-1.4858 3.104087,-2.2287 5.399033,-2.2287"
   id="path9"
   inkscape:export-filename="/Users/gotoalberto/git/coinffeine-webpage/assets/images/path23.png"
   inkscape:export-xdpi="28.719999"
   inkscape:export-ydpi="28.719999"
   style="fill:#ffffff"
   inkscape:connector-curvature="0" />
<path
   d="m 90.055121,15.8787 h 2.627725 v 15.996 h -2.627725 v -15.996 m 0,-6.2284 h 2.627725 v 3.329 h -2.627725 v -3.329"
   id="path11"
   inkscape:export-filename="/Users/gotoalberto/git/coinffeine-webpage/assets/images/path23.png"
   inkscape:export-xdpi="28.719999"
   inkscape:export-ydpi="28.719999"
   style="fill:#ffffff"
   inkscape:connector-curvature="0" />
<path
   d="m 111.46483,22.2198 v 9.6553 h -2.62931 V 22.307 c 0,-1.5147 -0.29351,-2.6475 -0.8841,-3.4 -0.5902,-0.7528 -1.47669,-1.1284 -2.65787,-1.1284 -1.41679,0 -2.5373,0.4526 -3.35556,1.3569 -0.81945,0.9047 -1.22799,2.1379 -1.22799,3.6986 v 9.041 H 98.066807 V 15.8787 H 100.71 v 2.4857 c 0.62748,-0.9618 1.36562,-1.6809 2.21403,-2.1569 0.85634,-0.4759 1.84278,-0.7151 2.95733,-0.7151 1.83683,0 3.22665,0.5715 4.16708,1.7154 0.94479,1.1328 1.41639,2.8035 1.41639,5.012"
   id="path13"
   inkscape:export-filename="/Users/gotoalberto/git/coinffeine-webpage/assets/images/path23.png"
   inkscape:export-xdpi="28.719999"
   inkscape:export-ydpi="28.719999"
   style="fill:#ffffff"
   inkscape:connector-curvature="0" />
<path
   d="m 129.52494,10.6034 c -1.64843,0.01 -3.3496,0.6886 -4.20952,2.153 -0.8845,1.37 -0.79168,3.0335 -0.78534,4.5954 -1.8872,-8e-4 -3.89181,-8e-4 -5.60013,0 v -1.3589 c 0,-0.633 0.0666,-1.1649 0.20467,-1.5933 0.14636,-0.4287 0.35182,-0.7774 0.6136,-1.0411 0.26416,-0.2638 0.58028,-0.4542 0.94122,-0.5704 0.37125,-0.1186 0.77622,-0.1721 1.22561,-0.1721 h 0.45455 c 0.28518,0 0.49976,-0.025 0.65524,-0.064 0.15588,-0.039 0.23798,-0.1543 0.24711,-0.349 l 0.0627,-1.3018 c -0.56482,-0.1947 -1.18278,-0.2911 -1.84516,-0.2911 -0.7794,0 -1.47748,0.1142 -2.10258,0.349 -0.62431,0.2336 -1.16374,0.5823 -1.61114,1.0412 -0.43908,0.4486 -0.77781,1.0059 -1.02254,1.6694 -0.2348,0.6533 -0.34864,1.3986 -0.34864,2.2474 v 1.4342 h -2.34334 v 1.0662 c 0,0.1955 0.0627,0.351 0.19039,0.4577 0.13644,0.097 0.30383,0.167 0.50809,0.2158 l 1.64446,0.1908 v 12.5928 h 2.61623 V 19.2377 c 1.83365,0.173 3.70459,-0.2459 5.50969,0.044 v 12.5928 h 2.61622 V 19.2376 h 4.19485 v -1.8864 h -4.28488 c 0.0178,-0.8714 -0.0611,-1.7555 0.11383,-2.615 0.17968,-1.1602 1.21094,-2.059 2.38062,-2.0951 0.58108,-0.1114 1.2629,0.1282 1.77773,-0.2026 0.13327,-0.3685 0.0722,-0.7826 0.11384,-1.1681 0.18285,-0.6604 -0.80399,-0.5018 -1.21927,-0.6354 -0.23084,-0.025 -0.46486,-0.033 -0.69808,-0.032 z"
   id="path15"
   inkscape:export-filename="/Users/gotoalberto/git/coinffeine-webpage/assets/images/path23.png"
   inkscape:export-xdpi="28.719999"
   inkscape:export-ydpi="28.719999"
   style="fill:#ffffff"
   inkscape:connector-curvature="0" />
<path
   d="m 148.08045,23.2205 v 1.2851 h -12.08357 c 0.11225,1.8098 0.65604,3.1897 1.62701,4.1425 0.98168,0.9424 2.34333,1.4132 4.08418,1.4132 1.00944,0 1.98636,-0.1238 2.92917,-0.3709 0.95034,-0.2475 1.89473,-0.6191 2.82842,-1.1141 v 2.4853 c -0.94281,0.3998 -1.91021,0.7032 -2.89982,0.9135 -0.99159,0.2094 -1.99469,0.3145 -3.01365,0.3145 -2.55197,0 -4.57522,-0.7429 -6.07054,-2.2283 -1.48581,-1.4846 -2.2295,-3.4948 -2.2295,-6.0269 0,-2.6182 0.70561,-4.695 2.11566,-6.2284 1.41838,-1.5418 3.3274,-2.314 5.72705,-2.314 2.15137,0 3.85175,0.6953 5.09878,2.0863 1.25774,1.3815 1.88681,3.2616 1.88681,5.6422 m -2.63011,-0.7707 c -0.0178,-1.4382 -0.42281,-2.5861 -1.2141,-3.4436 -0.78098,-0.8567 -1.81899,-1.2851 -3.11282,-1.2851 -1.46795,0 -2.64319,0.4149 -3.52849,1.2435 -0.87617,0.8281 -1.3799,1.9935 -1.51436,3.4979 l 9.36977,-0.013"
   id="path17"
   inkscape:export-filename="/Users/gotoalberto/git/coinffeine-webpage/assets/images/path23.png"
   inkscape:export-xdpi="28.719999"
   inkscape:export-ydpi="28.719999"
   style="fill:#ffffff"
   inkscape:connector-curvature="0" />
<path
   d="m 152.3923,15.8787 h 2.62931 v 15.996 h -2.62931 v -15.996 m 0,-6.2284 h 2.62931 v 3.329 h -2.62931 v -3.329"
   id="path19"
   inkscape:export-filename="/Users/gotoalberto/git/coinffeine-webpage/assets/images/path23.png"
   inkscape:export-xdpi="28.719999"
   inkscape:export-ydpi="28.719999"
   style="fill:#ffffff"
   inkscape:connector-curvature="0" />
<path
   d="m 173.8036,22.2198 v 9.6553 h -2.62773 V 22.307 c 0,-1.5147 -0.29668,-2.6475 -0.88688,-3.4 -0.5902,-0.7528 -1.4743,-1.1284 -2.65628,-1.1284 -1.41838,0 -2.53769,0.4526 -3.35595,1.3569 -0.81867,0.9047 -1.228,2.1379 -1.228,3.6986 v 9.041 h -2.6424 V 15.8787 h 2.6424 v 2.4857 c 0.62749,-0.9618 1.36404,-1.6809 2.21245,-2.1569 0.85832,-0.4759 1.84278,-0.7151 2.95773,-0.7151 1.83603,0 3.22665,0.5715 4.17025,1.7154 0.94201,1.1328 1.41441,2.8035 1.41441,5.012"
   id="path21"
   inkscape:export-filename="/Users/gotoalberto/git/coinffeine-webpage/assets/images/path23.png"
   inkscape:export-xdpi="28.719999"
   inkscape:export-ydpi="28.719999"
   style="fill:#ffffff"
   inkscape:connector-curvature="0" />
<path
   d="m 192.75773,23.2205 v 1.2851 h -12.08437 c 0.11384,1.8098 0.65604,3.1897 1.62781,4.1425 0.98247,0.9424 2.34254,1.4132 4.08655,1.4132 1.00865,0 1.98478,-0.1238 2.92759,-0.3709 0.95272,-0.2475 1.89474,-0.6191 2.82842,-1.1141 v 2.4853 c -0.9436,0.3998 -1.90862,0.7032 -2.90021,0.9135 -0.98843,0.2094 -1.99549,0.3145 -3.01445,0.3145 -2.55118,0 -4.57522,-0.7429 -6.07054,-2.2283 -1.48422,-1.4846 -2.22633,-3.4948 -2.22633,-6.0269 0,-2.6182 0.70403,-4.695 2.11249,-6.2284 1.41917,-1.5418 3.32898,-2.314 5.72864,-2.314 2.15137,0 3.85016,0.6953 5.09838,2.0863 1.25695,1.3815 1.88602,3.2616 1.88602,5.6422 m -2.62932,-0.7707 c -0.0202,-1.4382 -0.4236,-2.5861 -1.21331,-3.4436 -0.78098,-0.8567 -1.81898,-1.2851 -3.11519,-1.2851 -1.46479,0 -2.6432,0.4149 -3.52651,1.2435 -0.87855,0.8281 -1.38109,1.9935 -1.51516,3.4979 l 9.37017,-0.013"
   id="path23"
   inkscape:export-xdpi="28.719999"
   inkscape:export-ydpi="28.719999"
   style="fill:#ffffff"
   inkscape:connector-curvature="0" />

</svg>