<?xml version="1.0" encoding="UTF-8" standalone="no"?>
<!-- Generator: Adobe Illustrator 15.0.0, SVG Export Plug-In . SVG Version: 6.00 Build 0)  -->

<svg
   xmlns:dc="http://purl.org/dc/elements/1.1/"
   xmlns:cc="http://creativecommons.org/ns#"
   xmlns:rdf="http://www.w3.org/1999/02/22-rdf-syntax-ns#"
   xmlns:svg="http://www.w3.org/2000/svg"
   xmlns="http://www.w3.org/2000/svg"
   xmlns:sodipodi="http://sodipodi.sourceforge.net/DTD/sodipodi-0.dtd"
   xmlns:inkscape="http://www.inkscape.org/namespaces/inkscape"
   version="1.1"
   id="Layer_1"
   x="0px"
   y="0px"
   width="600"
   height="135"
   viewBox="0 0 600 135"
   enable-background="new 0 0 520 110"
   xml:space="preserve"
   inkscape:version="0.48.2 r9819"
   sodipodi:docname="logo.svg"
   inkscape:export-filename="/Users/gotoalberto/Downloads/coinffeine_big.png"
   inkscape:export-xdpi="153.16"
   inkscape:export-ydpi="153.16"><metadata
   id="metadata31"><rdf:RDF><cc:Work
       rdf:about=""><dc:format>image/svg+xml</dc:format><dc:type
         rdf:resource="http://purl.org/dc/dcmitype/StillImage" /><dc:title /></cc:Work></rdf:RDF></metadata><defs
   id="defs29" /><sodipodi:namedview
   pagecolor="#ffffff"
   bordercolor="#666666"
   borderopacity="1"
   objecttolerance="10"
   gridtolerance="10"
   guidetolerance="10"
   inkscape:pageopacity="0"
   inkscape:pageshadow="2"
   inkscape:window-width="640"
   inkscape:window-height="480"
   id="namedview27"
   showgrid="false"
   inkscape:zoom="0.67692308"
   inkscape:cx="260"
   inkscape:cy="55"
   inkscape:window-x="117"
   inkscape:window-y="0"
   inkscape:window-maximized="0"
   inkscape:current-layer="Layer_1" />
<path
   d="M 65.602291,12.405 C 34.145372,12.405 8.642,37.904665 8.642,69.361584 c 0,31.460626 25.503372,56.961526 56.960291,56.961526 31.456919,0 56.960289,-25.5009 56.960289,-56.961526 C 122.56135,37.904665 97.05921,12.405 65.602291,12.405 z m 0,6.32796 c 27.967339,0 50.631099,22.669939 50.631099,50.628624 0,27.961156 -22.66376,50.631096 -50.631099,50.631096 -27.962392,0 -50.631095,-22.66994 -50.631095,-50.631096 0,-27.958685 22.668703,-50.628624 50.631095,-50.628624 z"
   id="path3"
   inkscape:export-filename="/Users/gotoalberto/Downloads/path23.png"
   inkscape:export-xdpi="28.719999"
   inkscape:export-ydpi="28.719999"
   inkscape:connector-curvature="0"
   style="fill:#040404" />
<path
   d="m 85.643921,35.367797 c 0,0 -6.842007,14.164696 -12.023248,20.397508 -5.183713,6.231576 -11.603114,9.525922 -16.783119,17.588785 -5.180006,8.06411 -11.275657,30.00005 -11.275657,30.00005 0,0 6.845714,-14.15976 12.022012,-20.39257 5.184949,-6.23405 11.608057,-9.52839 16.78312,-17.593731 C 79.54827,57.306208 85.643921,35.367797 85.643921,35.367797 z M 89.401649,83.39035 C 78.334824,102.1654 58.704679,111.10437 45.560662,103.35537 32.41788,95.61255 30.737344,74.10786 41.807876,55.335285 52.873465,36.561472 72.501139,27.624974 85.643921,35.369033 98.7867,43.115563 100.46724,64.616541 89.401649,83.39035 z"
   id="path5"
   inkscape:export-filename="/Users/gotoalberto/Downloads/path23.png"
   inkscape:export-xdpi="28.719999"
   inkscape:export-ydpi="28.719999"
   inkscape:connector-curvature="0"
   style="fill:#040404" />
<path
   d="m 200.23919,46.015724 v 9.481437 c -3.02867,-2.823548 -6.25876,-4.927926 -9.70015,-6.321782 -3.41174,-1.392621 -7.04219,-2.089549 -10.90248,-2.089549 -7.59454,0 -13.40969,2.326801 -17.44174,6.984111 -4.037,4.628888 -6.05611,11.336205 -6.05611,20.114539 0,8.75114 2.02035,15.45351 6.05611,20.1133 4.03328,4.62765 9.84843,6.94333 17.44174,6.94333 3.86029,0 7.49074,-0.70064 10.90248,-2.09573 3.44015,-1.39386 6.67024,-3.49823 9.70015,-6.31684 v 9.39123 c -3.14112,2.1328 -6.48366,3.73549 -10.01278,4.8056 -3.50071,1.06763 -7.2053,1.60021 -11.12614,1.60021 -10.0548,0 -17.97927,-3.06945 -23.76105,-9.21329 -5.78179,-6.16979 -8.67577,-14.57865 -8.67577,-25.22658 0,-10.68376 2.89522,-19.091384 8.67577,-25.231519 5.78302,-6.169792 13.70749,-9.256542 23.76105,-9.256542 3.97644,0 7.7144,0.535053 11.21511,1.603924 3.53283,1.036742 6.8383,2.607302 9.92381,4.714151"
   id="path7"
   inkscape:export-filename="/Users/gotoalberto/Downloads/path23.png"
   inkscape:export-xdpi="28.719999"
   inkscape:export-ydpi="28.719999"
   inkscape:connector-curvature="0"
   style="fill:#040404" />
<path
   d="m 233.16534,63.236277 c -4.38793,0 -7.85898,1.721314 -10.40697,5.165177 -2.55293,3.411736 -3.82939,8.096226 -3.82939,14.059666 0,5.96219 1.26163,10.66522 3.78244,14.10414 2.54799,3.41421 6.04004,5.11822 10.45392,5.11822 4.36445,0 7.82314,-1.72007 10.37113,-5.16023 2.55294,-3.44139 3.82817,-8.12712 3.82817,-14.06213 0,-5.90412 -1.274,-10.57626 -3.82817,-14.016417 -2.54799,-3.47352 -6.00544,-5.208426 -10.37113,-5.208426 m 0,-6.943333 c 7.12251,0 12.714,2.314444 16.78436,6.943333 4.05923,4.628889 6.09194,11.038403 6.09194,19.224843 0,8.15801 -2.03271,14.56382 -6.09194,19.22236 -4.07036,4.62766 -9.66185,6.9421 -16.78436,6.9421 -7.14969,0 -12.75477,-2.31444 -16.82019,-6.9421 -4.03205,-4.65854 -6.04869,-11.06435 -6.04869,-19.22236 0,-8.18644 2.01664,-14.595954 6.04869,-19.224843 4.06542,-4.628889 9.6705,-6.943333 16.82019,-6.943333"
   id="path9"
   inkscape:export-filename="/Users/gotoalberto/Downloads/path23.png"
   inkscape:export-xdpi="28.719999"
   inkscape:export-ydpi="28.719999"
   inkscape:connector-curvature="0"
   style="fill:#040404" />
<path
   d="m 269.56996,57.496504 h 8.18643 v 49.834076 h -8.18643 V 57.496504 m 0,-19.404014 h 8.18643 v 10.371132 h -8.18643 V 38.09249"
   id="path11"
   inkscape:export-filename="/Users/gotoalberto/Downloads/path23.png"
   inkscape:export-xdpi="28.719999"
   inkscape:export-ydpi="28.719999"
   inkscape:connector-curvature="0"
   style="fill:#040404" />
<path
   d="m 336.26994,77.25145 v 30.08037 h -8.19137 V 77.52331 c 0,-4.719098 -0.91441,-8.248224 -2.75435,-10.592325 -1.83871,-2.345336 -4.60047,-3.515533 -8.28035,-3.515533 -4.41388,0 -7.9047,1.40992 -10.45393,4.22729 -2.55293,2.818605 -3.82569,6.660358 -3.82569,11.522798 v 28.16628 h -8.23462 V 57.496504 h 8.23462 v 7.744059 c 1.95486,-2.996544 4.25448,-5.236847 6.89762,-6.719673 2.66785,-1.482826 5.741,-2.227946 9.21329,-2.227946 5.72247,0 10.05232,1.780627 12.98214,5.344352 2.94341,3.529126 4.41264,8.733846 4.41264,15.614154"
   id="path13"
   inkscape:export-filename="/Users/gotoalberto/Downloads/path23.png"
   inkscape:export-xdpi="28.719999"
   inkscape:export-ydpi="28.719999"
   inkscape:connector-curvature="0"
   style="fill:#040404" />
<path
   d="m 392.53454,41.061849 c -5.13552,0.03213 -10.43539,2.145155 -13.11436,6.707317 -2.75558,4.268067 -2.46643,9.450544 -2.44666,14.316685 -5.87941,-0.0025 -12.12458,-0.0025 -17.44669,0 v -4.233468 c 0,-1.972159 0.2076,-3.629217 0.63762,-4.963761 0.45597,-1.335779 1.09606,-2.421949 1.91161,-3.243681 0.82297,-0.821733 1.80781,-1.414864 2.93229,-1.77692 1.1566,-0.369471 2.41824,-0.536289 3.81828,-0.536289 h 1.41609 c 0.88846,0 1.55697,-0.07661 2.04136,-0.19771 0.48563,-0.121098 0.74141,-0.480683 0.76984,-1.087406 l 0.19523,-4.055529 c -1.75962,-0.606723 -3.68482,-0.906996 -5.74842,-0.906996 -2.42813,0 -4.60294,0.355879 -6.55038,1.087406 -1.94498,0.727821 -3.62551,1.813991 -5.01937,3.243682 -1.36791,1.397564 -2.42318,3.133706 -3.1856,5.201013 -0.73153,2.035178 -1.08617,4.357037 -1.08617,7.00141 v 4.468249 h -7.30045 v 3.32153 c 0,0.609195 0.19524,1.093585 0.59313,1.425985 0.42508,0.302743 0.94654,0.520225 1.58292,0.672214 l 5.12316,0.594366 v 39.231874 h 8.1506 V 67.962785 c 5.71259,0.53876 11.54133,-0.766127 17.16495,0.137161 v 39.231874 h 8.1506 V 67.962785 h 13.06864 v -5.876934 h -13.34914 c 0.0556,-2.714807 -0.1903,-5.469157 0.35464,-8.146893 0.55977,-3.614389 3.77256,-6.414459 7.4166,-6.526906 1.81029,-0.347229 3.93443,0.399127 5.53836,-0.631437 0.41519,-1.147955 0.22489,-2.438013 0.35464,-3.639102 0.56965,-2.057422 -2.50474,-1.563146 -3.79851,-1.979573 -0.71917,-0.07908 -1.44822,-0.102562 -2.17481,-0.100091 z"
   id="path15"
   inkscape:export-filename="/Users/gotoalberto/Downloads/path23.png"
   inkscape:export-xdpi="28.719999"
   inkscape:export-ydpi="28.719999"
   inkscape:connector-curvature="0"
   style="fill:#040404" />
<path
   d="m 450.34252,80.3691 v 4.00363 h -37.64525 c 0.3497,5.63844 2.04383,9.9374 5.06879,12.90553 3.05833,2.93599 7.30045,4.40275 12.72389,4.40275 3.14482,0 6.18832,-0.38553 9.12556,-1.15537 2.9607,-0.77106 5.90288,-1.9289 8.81169,-3.47104 v 7.74282 c -2.93723,1.24557 -5.95108,2.19088 -9.03412,2.84579 -3.08922,0.65244 -6.21428,0.9799 -9.38876,0.9799 -7.95042,0 -14.25366,-2.31444 -18.91221,-6.9421 -4.62889,-4.62518 -6.9458,-10.88765 -6.9458,-18.77628 0,-8.15678 2.19829,-14.626845 6.59116,-19.404016 4.41882,-4.80312 10.36619,-7.209006 17.8421,-7.209006 6.70238,0 11.99977,2.166162 15.88478,6.499721 3.91836,4.303903 5.87817,10.161066 5.87817,17.577671 m -8.19385,-2.40095 c -0.0556,-4.4806 -1.31725,-8.056684 -3.78245,-10.728243 -2.43307,-2.669087 -5.66686,-4.00363 -9.69768,-4.00363 -4.57328,0 -8.23463,1.29253 -10.99268,3.873883 -2.72964,2.580117 -4.29896,6.21057 -4.71786,10.89754 l 29.19067,-0.0396"
   id="path17"
   inkscape:export-filename="/Users/gotoalberto/Downloads/path23.png"
   inkscape:export-xdpi="28.719999"
   inkscape:export-ydpi="28.719999"
   inkscape:connector-curvature="0"
   style="fill:#040404" />
<path
   d="m 463.77568,57.496504 h 8.19138 v 49.834076 h -8.19138 V 57.496504 m 0,-19.404014 h 8.19138 v 10.371132 h -8.19138 V 38.09249"
   id="path19"
   inkscape:export-filename="/Users/gotoalberto/Downloads/path23.png"
   inkscape:export-xdpi="28.719999"
   inkscape:export-ydpi="28.719999"
   inkscape:connector-curvature="0"
   style="fill:#040404" />
<path
   d="m 530.48061,77.25145 v 30.08037 h -8.18643 V 77.52331 c 0,-4.719098 -0.9243,-8.248224 -2.763,-10.592325 -1.8387,-2.345336 -4.59305,-3.515533 -8.27541,-3.515533 -4.41882,0 -7.90593,1.40992 -10.45515,4.22729 -2.55047,2.818605 -3.8257,6.660358 -3.8257,11.522798 v 28.16628 h -8.23215 V 57.496504 h 8.23215 v 7.744059 c 1.95486,-2.996544 4.24954,-5.236847 6.89267,-6.719673 2.67403,-1.482826 5.74101,-2.227946 9.21453,-2.227946 5.72,0 10.05233,1.780627 12.99203,5.344352 2.93476,3.529126 4.40646,8.733846 4.40646,15.614154"
   id="path21"
   inkscape:export-filename="/Users/gotoalberto/Downloads/path23.png"
   inkscape:export-xdpi="28.719999"
   inkscape:export-ydpi="28.719999"
   inkscape:connector-curvature="0"
   style="fill:#040404" />
<path
   d="m 589.53045,80.3691 v 4.00363 h -37.64771 c 0.35464,5.63844 2.04383,9.9374 5.07126,12.90553 3.0608,2.93599 7.29798,4.40275 12.7313,4.40275 3.14235,0 6.18338,-0.38553 9.12062,-1.15537 2.96812,-0.77106 5.90288,-1.9289 8.81169,-3.47104 v 7.74282 c -2.9397,1.24557 -5.94613,2.19088 -9.03535,2.84579 -3.07934,0.65244 -6.21675,0.9799 -9.39124,0.9799 -7.94794,0 -14.25366,-2.31444 -18.91221,-6.9421 -4.62394,-4.62518 -6.93592,-10.88765 -6.93592,-18.77628 0,-8.15678 2.19335,-14.626845 6.58128,-19.404016 4.42129,-4.80312 10.37113,-7.209006 17.84705,-7.209006 6.70237,0 11.99483,2.166162 15.88354,6.499721 3.91589,4.303903 5.87569,10.161066 5.87569,17.577671 m -8.19137,-2.40095 c -0.063,-4.4806 -1.31972,-8.056684 -3.77997,-10.728243 -2.43307,-2.669087 -5.66687,-4.00363 -9.7051,-4.00363 -4.5634,0 -8.23463,1.29253 -10.98651,3.873883 -2.73705,2.580117 -4.30266,6.21057 -4.72033,10.89754 l 29.19191,-0.0396"
   id="path23"
   inkscape:export-xdpi="28.719999"
   inkscape:export-ydpi="28.719999"
   inkscape:connector-curvature="0"
   style="fill:#040404" />

</svg>